<svg id="e3djqBQzhfc1" xmlns="http://www.w3.org/2000/svg" xmlns:xlink="http://www.w3.org/1999/xlink" viewBox="0 0 18 17" shape-rendering="geometricPrecision" text-rendering="geometricPrecision" project-id="cfc63a38dc9b4d9bba38589a6187e154" export-id="f487bdc4a5d44189a46efffbeceba42b" cached="false"><polygon points="0,-3.77016 0.886418,-1.220049 3.585635,-1.165043 1.434254,0.466017 2.216044,3.050123 0,1.508064 -2.216044,3.050123 -1.434254,0.466017 -3.585635,-1.165043 -0.886418,-1.220049 0,-3.77016" transform="matrix(0.573576 -0.819152 0.819152 0.573576 8.266592 9.405406)" fill="#525af2" stroke-width="0.1"/><polygon points="0,-3.77016 0.886418,-1.220049 3.585635,-1.165043 1.434254,0.466017 2.216044,3.050123 0,1.508064 -2.216044,3.050123 -1.434254,0.466017 -3.585635,-1.165043 -0.886418,-1.220049 0,-3.77016" transform="matrix(0.573576 -0.819152 0.819152 0.573576 10.323228 8.00759)" fill="#3dd9bc" stroke-width="0.1"/><polygon points="0,-3.77016 0.886418,-1.220049 3.585635,-1.165043 1.434254,0.466017 2.216044,3.050123 0,1.508064 -2.216044,3.050123 -1.434254,0.466017 -3.585635,-1.165043 -0.886418,-1.220049 0,-3.77016" transform="matrix(0.573576 -0.819152 0.819152 0.573576 8.266592 9.405406)" fill="none" stroke="#525af2" stroke-width="0.1"/></svg>
